<svg xmlns="http://www.w3.org/2000/svg" xmlns:xlink="http://www.w3.org/1999/xlink" width="965" zoomAndPan="magnify" viewBox="0 0 723.75 374.250002" height="499" preserveAspectRatio="xMidYMid meet" version="1.0"><defs><clipPath id="4fcd816c32"><path d="M 13.910156 10.070312 L 722.902344 10.070312 L 722.902344 372.761719 L 13.910156 372.761719 Z M 13.910156 10.070312 " clip-rule="nonzero"/></clipPath><clipPath id="0019e3eff4"><path d="M 69.300781 10.070312 L 667.226562 10.070312 C 681.914062 10.070312 696.003906 15.90625 706.390625 26.292969 C 716.777344 36.679688 722.613281 50.769531 722.613281 65.460938 L 722.613281 317.375 C 722.613281 332.0625 716.777344 346.152344 706.390625 356.539062 C 696.003906 366.925781 681.914062 372.761719 667.226562 372.761719 L 69.300781 372.761719 C 54.609375 372.761719 40.523438 366.925781 30.132812 356.539062 C 19.746094 346.152344 13.910156 332.0625 13.910156 317.375 L 13.910156 65.460938 C 13.910156 50.769531 19.746094 36.679688 30.132812 26.292969 C 40.523438 15.90625 54.609375 10.070312 69.300781 10.070312 Z M 69.300781 10.070312 " clip-rule="nonzero"/></clipPath><clipPath id="e6508a1ae9"><path d="M 0.910156 0.0703125 L 709.75 0.0703125 L 709.75 362.761719 L 0.910156 362.761719 Z M 0.910156 0.0703125 " clip-rule="nonzero"/></clipPath><clipPath id="fec6eeb5c5"><path d="M 56.300781 0.0703125 L 654.226562 0.0703125 C 668.914062 0.0703125 683.003906 5.90625 693.390625 16.292969 C 703.777344 26.679688 709.613281 40.769531 709.613281 55.460938 L 709.613281 307.375 C 709.613281 322.0625 703.777344 336.152344 693.390625 346.539062 C 683.003906 356.925781 668.914062 362.761719 654.226562 362.761719 L 56.300781 362.761719 C 41.609375 362.761719 27.523438 356.925781 17.132812 346.539062 C 6.746094 336.152344 0.910156 322.0625 0.910156 307.375 L 0.910156 55.460938 C 0.910156 40.769531 6.746094 26.679688 17.132812 16.292969 C 27.523438 5.90625 41.609375 0.0703125 56.300781 0.0703125 Z M 56.300781 0.0703125 " clip-rule="nonzero"/></clipPath><clipPath id="bf7be8a52b"><rect x="0" width="710" y="0" height="363"/></clipPath><clipPath id="b75b55d523"><path d="M 0.597656 0 L 718 0 L 718 359.519531 L 0.597656 359.519531 Z M 0.597656 0 " clip-rule="nonzero"/></clipPath><clipPath id="94f5fe46ec"><path d="M 55.988281 0 L 662.410156 0 C 677.101562 0 691.191406 5.835938 701.578125 16.222656 C 711.964844 26.609375 717.800781 40.699219 717.800781 55.390625 L 717.800781 304.132812 C 717.800781 318.820312 711.964844 332.910156 701.578125 343.296875 C 691.191406 353.683594 677.101562 359.519531 662.410156 359.519531 L 55.988281 359.519531 C 41.296875 359.519531 27.210938 353.683594 16.820312 343.296875 C 6.433594 332.910156 0.597656 318.820312 0.597656 304.132812 L 0.597656 55.390625 C 0.597656 40.699219 6.433594 26.609375 16.820312 16.222656 C 27.210938 5.835938 41.296875 0 55.988281 0 Z M 55.988281 0 " clip-rule="nonzero"/></clipPath><clipPath id="6d5d8644dd"><path d="M 0.597656 0 L 717.960938 0 L 717.960938 359.519531 L 0.597656 359.519531 Z M 0.597656 0 " clip-rule="nonzero"/></clipPath><clipPath id="7c38b71cd9"><path d="M 55.988281 0 L 662.410156 0 C 677.101562 0 691.191406 5.835938 701.578125 16.222656 C 711.964844 26.609375 717.800781 40.699219 717.800781 55.390625 L 717.800781 304.132812 C 717.800781 318.820312 711.964844 332.910156 701.578125 343.296875 C 691.191406 353.683594 677.101562 359.519531 662.410156 359.519531 L 55.988281 359.519531 C 41.296875 359.519531 27.210938 353.683594 16.820312 343.296875 C 6.433594 332.910156 0.597656 318.820312 0.597656 304.132812 L 0.597656 55.390625 C 0.597656 40.699219 6.433594 26.609375 16.820312 16.222656 C 27.210938 5.835938 41.296875 0 55.988281 0 Z M 55.988281 0 " clip-rule="nonzero"/></clipPath><clipPath id="a8d70bae6c"><rect x="0" width="718" y="0" height="360"/></clipPath></defs><g clip-path="url(#4fcd816c32)"><g clip-path="url(#0019e3eff4)"><g transform="matrix(1, 0, 0, 1, 13, 10)"><g clip-path="url(#bf7be8a52b)"><g clip-path="url(#e6508a1ae9)"><g clip-path="url(#fec6eeb5c5)"><path fill="#545454" d="M 0.910156 0.0703125 L 709.292969 0.0703125 L 709.292969 362.761719 L 0.910156 362.761719 Z M 0.910156 0.0703125 " fill-opacity="1" fill-rule="nonzero"/></g></g></g></g></g></g><g clip-path="url(#b75b55d523)"><g clip-path="url(#94f5fe46ec)"><g transform="matrix(1, 0, 0, 1, 0.000000000000000111, 0.00000000000001836)"><g clip-path="url(#a8d70bae6c)"><g clip-path="url(#6d5d8644dd)"><g clip-path="url(#7c38b71cd9)"><path fill="#fff6ea" d="M 0.597656 0 L 718.234375 0 L 718.234375 359.519531 L 0.597656 359.519531 Z M 0.597656 0 " fill-opacity="1" fill-rule="nonzero"/></g></g></g></g></g></g></svg>