<svg xmlns="http://www.w3.org/2000/svg" xmlns:xlink="http://www.w3.org/1999/xlink" width="1541" zoomAndPan="magnify" viewBox="0 0 1155.75 77.249999" height="103" preserveAspectRatio="xMidYMid meet" version="1.0"><defs><clipPath id="9d2bb0f414"><path d="M 17.75 7.136719 L 1149.640625 7.136719 L 1149.640625 76.308594 L 17.75 76.308594 Z M 17.75 7.136719 " clip-rule="nonzero"/></clipPath><clipPath id="d6a8edfa45"><path d="M 52.335938 7.136719 L 1114.839844 7.136719 C 1133.941406 7.136719 1149.425781 22.621094 1149.425781 41.722656 C 1149.425781 60.824219 1133.941406 76.308594 1114.839844 76.308594 L 52.335938 76.308594 C 33.234375 76.308594 17.75 60.824219 17.75 41.722656 C 17.75 22.621094 33.234375 7.136719 52.335938 7.136719 Z M 52.335938 7.136719 " clip-rule="nonzero"/></clipPath><clipPath id="4873ce9e91"><path d="M 0.75 0.136719 L 1132.445312 0.136719 L 1132.445312 69.308594 L 0.75 69.308594 Z M 0.75 0.136719 " clip-rule="nonzero"/></clipPath><clipPath id="daaaca62ef"><path d="M 35.335938 0.136719 L 1097.839844 0.136719 C 1116.941406 0.136719 1132.425781 15.621094 1132.425781 34.722656 C 1132.425781 53.824219 1116.941406 69.308594 1097.839844 69.308594 L 35.335938 69.308594 C 16.234375 69.308594 0.75 53.824219 0.75 34.722656 C 0.75 15.621094 16.234375 0.136719 35.335938 0.136719 Z M 35.335938 0.136719 " clip-rule="nonzero"/></clipPath><clipPath id="4813451902"><rect x="0" width="1133" y="0" height="70"/></clipPath><clipPath id="971d4fc4e4"><path d="M 5.433594 0 L 1137.328125 0 L 1137.328125 69.171875 L 5.433594 69.171875 Z M 5.433594 0 " clip-rule="nonzero"/></clipPath><clipPath id="f8bfc46d58"><path d="M 40.019531 0 L 1102.527344 0 C 1121.628906 0 1137.113281 15.484375 1137.113281 34.585938 C 1137.113281 53.6875 1121.628906 69.171875 1102.527344 69.171875 L 40.019531 69.171875 C 20.917969 69.171875 5.433594 53.6875 5.433594 34.585938 C 5.433594 15.484375 20.917969 0 40.019531 0 Z M 40.019531 0 " clip-rule="nonzero"/></clipPath><clipPath id="7f16818649"><path d="M 0.433594 0 L 1132.324219 0 L 1132.324219 69.171875 L 0.433594 69.171875 Z M 0.433594 0 " clip-rule="nonzero"/></clipPath><clipPath id="fee102ba8f"><path d="M 35.019531 0 L 1097.527344 0 C 1116.628906 0 1132.113281 15.484375 1132.113281 34.585938 C 1132.113281 53.6875 1116.628906 69.171875 1097.527344 69.171875 L 35.019531 69.171875 C 15.917969 69.171875 0.433594 53.6875 0.433594 34.585938 C 0.433594 15.484375 15.917969 0 35.019531 0 Z M 35.019531 0 " clip-rule="nonzero"/></clipPath><clipPath id="0cb3c86f01"><rect x="0" width="1133" y="0" height="70"/></clipPath></defs><g clip-path="url(#9d2bb0f414)"><g clip-path="url(#d6a8edfa45)"><g transform="matrix(1, 0, 0, 1, 17, 7)"><g clip-path="url(#4813451902)"><g clip-path="url(#4873ce9e91)"><g clip-path="url(#daaaca62ef)"><path fill="#545454" d="M 0.75 0.136719 L 1132.371094 0.136719 L 1132.371094 69.308594 L 0.75 69.308594 Z M 0.75 0.136719 " fill-opacity="1" fill-rule="nonzero"/></g></g></g></g></g></g><g clip-path="url(#971d4fc4e4)"><g clip-path="url(#f8bfc46d58)"><g transform="matrix(1, 0, 0, 1, 5, 0.000000000000000807)"><g clip-path="url(#0cb3c86f01)"><g clip-path="url(#7f16818649)"><g clip-path="url(#fee102ba8f)"><path fill="#fff6ea" d="M 0.433594 0 L 1132.054688 0 L 1132.054688 69.171875 L 0.433594 69.171875 Z M 0.433594 0 " fill-opacity="1" fill-rule="nonzero"/></g></g></g></g></g></g></svg>