<svg xmlns="http://www.w3.org/2000/svg" xmlns:xlink="http://www.w3.org/1999/xlink" width="319" zoomAndPan="magnify" viewBox="0 0 239.25 89.999999" height="120" preserveAspectRatio="xMidYMid meet" version="1.0"><defs><g/><clipPath id="7c9bf1d55f"><path d="M 8 0.140625 L 238 0.140625 L 238 89.859375 L 8 89.859375 Z M 8 0.140625 " clip-rule="nonzero"/></clipPath><clipPath id="f608a7fe36"><path d="M 8.613281 15.941406 L 233.101562 0.148438 L 238.296875 73.984375 L 13.808594 89.777344 Z M 8.613281 15.941406 " clip-rule="nonzero"/></clipPath><clipPath id="0f9d8b25b0"><path d="M 3 14 L 228 14 L 228 77 L 3 77 Z M 3 14 " clip-rule="nonzero"/></clipPath><clipPath id="d64a401f87"><path d="M 0.613281 15.941406 L 225.101562 0.148438 L 230.296875 73.984375 L 5.808594 89.777344 Z M 0.613281 15.941406 " clip-rule="nonzero"/></clipPath><clipPath id="fb72348efd"><path d="M 225.195312 0.140625 L 0.707031 15.9375 L 5.902344 89.773438 L 230.390625 73.976562 Z M 225.195312 0.140625 " clip-rule="nonzero"/></clipPath><clipPath id="31de7641d2"><rect x="0" width="230" y="0" height="90"/></clipPath></defs><g clip-path="url(#7c9bf1d55f)"><g clip-path="url(#f608a7fe36)"><g transform="matrix(1, 0, 0, 1, 8, -0.000000000000004219)"><g clip-path="url(#31de7641d2)"><g clip-path="url(#0f9d8b25b0)"><g clip-path="url(#d64a401f87)"><g clip-path="url(#fb72348efd)"><path fill="#ff5757" d="M 223.371094 55.519531 C 223.863281 54.832031 224.5625 54.640625 225.121094 54.246094 C 227.449219 52.609375 227.757812 50.085938 225.875 47.957031 C 225.230469 47.230469 224.550781 46.53125 223.890625 45.816406 C 223.046875 44.902344 223.074219 44.6875 224.019531 43.792969 C 224.578125 43.269531 225.132812 42.738281 225.644531 42.167969 C 227.894531 39.640625 227.039062 38.011719 225.539062 36.28125 C 224.898438 35.546875 224.25 34.808594 223.523438 34.167969 C 222.8125 33.542969 222.929688 33.054688 223.484375 32.417969 C 224.355469 31.425781 225.324219 30.515625 225.828125 29.230469 C 226.671875 27.078125 226.359375 25.972656 224.40625 24.621094 C 222.820312 23.519531 222.6875 23.101562 223.402344 21.308594 C 223.765625 20.402344 224.222656 19.523438 224.519531 18.597656 C 225.238281 16.367188 224.480469 15.179688 222.222656 14.621094 C 220.304688 14.144531 218.324219 14.144531 216.417969 14.171875 C 213.5625 14.210938 210.707031 14.132812 207.859375 14.167969 C 186.550781 14.429688 165.242188 14.703125 143.929688 14.777344 C 121.875 14.851562 99.820312 14.636719 77.765625 14.644531 C 56.335938 14.648438 34.179688 13.589844 12.84375 15.746094 C 11.027344 15.929688 9.261719 16.257812 7.496094 16.640625 C 5.058594 17.164062 4.429688 18.417969 5.285156 20.8125 C 5.636719 21.796875 6.125 22.726562 6.59375 23.660156 C 6.933594 24.339844 6.9375 24.894531 6.496094 25.585938 C 6.042969 26.296875 5.5 26.933594 5.042969 27.628906 C 3.703125 29.695312 3.785156 30.785156 5.269531 32.75 C 5.734375 33.367188 6.253906 33.921875 6.835938 34.425781 C 7.484375 34.996094 7.507812 35.601562 6.941406 36.242188 C 6.382812 36.871094 5.800781 37.476562 5.28125 38.132812 C 4.148438 39.574219 4.078125 40.589844 5.015625 42.164062 C 5.410156 42.816406 5.921875 43.402344 6.324219 44.050781 C 7.0625 45.238281 6.992188 45.605469 5.992188 46.558594 C 5.6875 46.84375 5.359375 47.113281 5.09375 47.433594 C 3.191406 49.714844 3.335938 51.40625 5.585938 53.367188 C 5.742188 53.503906 5.90625 53.636719 6.066406 53.773438 C 7.777344 55.246094 7.851562 55.289062 6.6875 57.164062 C 4.84375 60.125 4.230469 62.410156 9.105469 65.039062 C 9.34375 65.167969 9.566406 65.324219 9.863281 65.503906 C 9.484375 66.539062 8.972656 67.4375 8.238281 68.175781 C 7.148438 69.277344 6.417969 70.640625 5.480469 71.851562 C 4.675781 72.886719 4.878906 74.199219 5.890625 75.007812 C 6.785156 75.71875 7.851562 76.113281 8.988281 76.132812 C 77.082031 77.128906 146.085938 77.132812 214.359375 74.96875 C 216.457031 74.902344 218.546875 74.902344 220.636719 74.734375 C 221.195312 74.6875 221.757812 74.667969 222.308594 74.601562 C 225.1875 74.265625 226.195312 71.933594 224.4375 69.617188 C 224.019531 69.066406 223.421875 68.660156 222.941406 68.152344 C 222.09375 67.269531 222.109375 66.839844 223.097656 66.152344 C 223.785156 65.675781 224.40625 65.117188 225.074219 64.617188 C 227.847656 62.523438 227.285156 59.410156 225.347656 57.34375 C 224.738281 56.6875 224.035156 56.125 223.371094 55.519531 Z M 223.371094 55.519531 " fill-opacity="1" fill-rule="nonzero"/></g></g></g></g></g></g></g><g fill="#000000" fill-opacity="1"><g transform="translate(115.014156, 47.433866)"><g><path d="M 0.46875 -1.171875 L 0.171875 -1.171875 L 0.328125 -1.421875 L 0.734375 -1.421875 L 0.734375 0 L 0.46875 0 Z M 0.46875 -1.171875 "/></g></g></g></svg>