<svg xmlns="http://www.w3.org/2000/svg" xmlns:xlink="http://www.w3.org/1999/xlink" width="355" zoomAndPan="magnify" viewBox="0 0 266.25 104.999996" height="140" preserveAspectRatio="xMidYMid meet" version="1.0"><defs><g/><clipPath id="40de0147c2"><path d="M 0 0.148438 L 265.503906 0.148438 L 265.503906 104.851562 L 0 104.851562 Z M 0 0.148438 " clip-rule="nonzero"/></clipPath><clipPath id="12d2058cac"><path d="M 0 19.089844 L 258.828125 0.148438 L 265.050781 85.179688 L 6.222656 104.125 Z M 0 19.089844 " clip-rule="nonzero"/></clipPath><clipPath id="bdc33638f9"><path d="M 3 15 L 262 15 L 262 89 L 3 89 Z M 3 15 " clip-rule="nonzero"/></clipPath><clipPath id="4c7997a0b0"><path d="M 0 19.089844 L 258.828125 0.148438 L 265.050781 85.179688 L 6.222656 104.125 Z M 0 19.089844 " clip-rule="nonzero"/></clipPath><clipPath id="c5a5f0d743"><path d="M 6.234375 104.265625 L 265.0625 85.320312 L 258.835938 0.289062 L 0.0117188 19.230469 Z M 6.234375 104.265625 " clip-rule="nonzero"/></clipPath><clipPath id="0623a46f38"><rect x="0" width="266" y="0" height="105"/></clipPath><clipPath id="6282ca6ea0"><path d="M 0.0625 0.164062 L 2 0.164062 L 2 2 L 0.0625 2 Z M 0.0625 0.164062 " clip-rule="nonzero"/></clipPath><clipPath id="61c19d8a01"><path d="M 1 0.164062 L 3 0.164062 L 3 2 L 1 2 Z M 1 0.164062 " clip-rule="nonzero"/></clipPath><clipPath id="df54480041"><path d="M 2 0.164062 L 3 0.164062 L 3 2 L 2 2 Z M 2 0.164062 " clip-rule="nonzero"/></clipPath><clipPath id="12f3985350"><path d="M 2 0.164062 L 3.414062 0.164062 L 3.414062 2 L 2 2 Z M 2 0.164062 " clip-rule="nonzero"/></clipPath><clipPath id="7a81ef55f8"><rect x="0" width="4" y="0" height="3"/></clipPath></defs><g clip-path="url(#40de0147c2)"><g clip-path="url(#12d2058cac)"><g transform="matrix(1, 0, 0, 1, 0, -0.000000000000005745)"><g clip-path="url(#0623a46f38)"><g clip-path="url(#bdc33638f9)"><g clip-path="url(#4c7997a0b0)"><g clip-path="url(#c5a5f0d743)"><path fill="#00b26f" d="M 8.160156 40.425781 C 7.597656 41.214844 6.789062 41.441406 6.148438 41.898438 C 3.472656 43.789062 3.121094 46.699219 5.296875 49.148438 C 6.042969 49.984375 6.832031 50.789062 7.597656 51.613281 C 8.566406 52.660156 8.539062 52.910156 7.449219 53.941406 C 6.8125 54.546875 6.171875 55.164062 5.585938 55.824219 C 2.996094 58.742188 3.988281 60.613281 5.722656 62.605469 C 6.464844 63.453125 7.214844 64.296875 8.054688 65.035156 C 8.875 65.753906 8.746094 66.320312 8.105469 67.054688 C 7.105469 68.199219 5.992188 69.253906 5.414062 70.734375 C 4.449219 73.21875 4.8125 74.492188 7.070312 76.042969 C 8.902344 77.308594 9.054688 77.789062 8.234375 79.859375 C 7.820312 80.902344 7.296875 81.917969 6.957031 82.984375 C 6.136719 85.5625 7.011719 86.925781 9.617188 87.5625 C 11.832031 88.105469 14.113281 88.097656 16.308594 88.0625 C 19.597656 88.007812 22.890625 88.089844 26.175781 88.039062 C 50.734375 87.664062 75.296875 87.28125 99.863281 87.128906 C 125.285156 86.972656 150.707031 87.144531 176.132812 87.066406 C 200.832031 86.992188 226.375 88.140625 250.960938 85.585938 C 253.050781 85.371094 255.089844 84.984375 257.121094 84.539062 C 259.929688 83.925781 260.652344 82.480469 259.660156 79.71875 C 259.25 78.589844 258.683594 77.519531 258.140625 76.445312 C 257.746094 75.660156 257.742188 75.019531 258.246094 74.222656 C 258.765625 73.402344 259.390625 72.667969 259.910156 71.863281 C 261.449219 69.476562 261.351562 68.222656 259.636719 65.960938 C 259.097656 65.25 258.496094 64.617188 257.828125 64.035156 C 257.074219 63.378906 257.042969 62.683594 257.699219 61.941406 C 258.339844 61.214844 259.007812 60.515625 259.605469 59.757812 C 260.90625 58.09375 260.980469 56.921875 259.898438 55.113281 C 259.441406 54.359375 258.851562 53.6875 258.382812 52.941406 C 257.53125 51.574219 257.609375 51.148438 258.761719 50.050781 C 259.109375 49.71875 259.484375 49.40625 259.789062 49.035156 C 261.976562 46.402344 261.804688 44.453125 259.207031 42.199219 C 259.023438 42.042969 258.835938 41.890625 258.648438 41.734375 C 256.671875 40.039062 256.585938 39.988281 257.921875 37.824219 C 260.039062 34.402344 260.734375 31.769531 255.109375 28.753906 C 254.835938 28.609375 254.578125 28.429688 254.230469 28.222656 C 254.667969 27.027344 255.253906 25.988281 256.097656 25.136719 C 257.351562 23.863281 258.1875 22.289062 259.265625 20.890625 C 260.1875 19.695312 259.953125 18.183594 258.78125 17.257812 C 257.75 16.4375 256.519531 15.988281 255.210938 15.96875 C 176.714844 15.042969 97.175781 15.261719 18.484375 17.976562 C 16.070312 18.0625 13.65625 18.066406 11.25 18.269531 C 10.605469 18.320312 9.960938 18.347656 9.324219 18.425781 C 6.007812 18.824219 4.855469 21.511719 6.886719 24.179688 C 7.367188 24.8125 8.058594 25.277344 8.613281 25.859375 C 9.59375 26.875 9.582031 27.371094 8.441406 28.164062 C 7.648438 28.71875 6.933594 29.363281 6.171875 29.941406 C 2.976562 32.363281 3.636719 35.949219 5.878906 38.328125 C 6.582031 39.082031 7.394531 39.730469 8.160156 40.425781 Z M 8.160156 40.425781 " fill-opacity="1" fill-rule="nonzero"/></g></g></g></g></g></g></g><g transform="matrix(1, 0, 0, 1, 77, 22)"><g clip-path="url(#7a81ef55f8)"><g clip-path="url(#6282ca6ea0)"><g fill="#5301de" fill-opacity="1"><g transform="translate(0.17235, 1.335608)"><g><path d="M 1.328125 -0.796875 C 1.328125 -0.765625 1.320312 -0.726562 1.3125 -0.6875 C 1.3125 -0.644531 1.304688 -0.59375 1.296875 -0.53125 C 1.285156 -0.476562 1.265625 -0.421875 1.234375 -0.359375 C 1.210938 -0.296875 1.1875 -0.234375 1.15625 -0.171875 C 1.132812 -0.109375 1.109375 -0.0507812 1.078125 0 C 1.046875 0.0625 1.007812 0.117188 0.96875 0.171875 C 0.9375 0.222656 0.898438 0.265625 0.859375 0.296875 C 0.804688 0.335938 0.757812 0.347656 0.71875 0.328125 C 0.695312 0.316406 0.675781 0.289062 0.65625 0.25 C 0.644531 0.207031 0.640625 0.148438 0.640625 0.078125 C 0.640625 0.015625 0.640625 -0.0546875 0.640625 -0.140625 C 0.640625 -0.160156 0.640625 -0.1875 0.640625 -0.21875 C 0.640625 -0.25 0.640625 -0.273438 0.640625 -0.296875 C 0.640625 -0.328125 0.632812 -0.347656 0.625 -0.359375 C 0.625 -0.359375 0.617188 -0.351562 0.609375 -0.34375 C 0.609375 -0.332031 0.597656 -0.316406 0.578125 -0.296875 C 0.421875 -0.00390625 0.296875 0.207031 0.203125 0.34375 C 0.171875 0.382812 0.144531 0.414062 0.125 0.4375 C 0.101562 0.46875 0.0820312 0.488281 0.0625 0.5 C 0.0507812 0.507812 0.0390625 0.515625 0.03125 0.515625 C 0.03125 0.515625 0.0234375 0.515625 0.015625 0.515625 C 0.015625 0.503906 0.0078125 0.492188 0 0.484375 C 0 0.484375 0 0.472656 0 0.453125 C 0 0.441406 0 0.421875 0 0.390625 C 0.0078125 0.359375 0.0195312 0.316406 0.03125 0.265625 C 0.0390625 0.210938 0.0546875 0.148438 0.078125 0.078125 C 0.0976562 0.015625 0.117188 -0.046875 0.140625 -0.109375 C 0.171875 -0.171875 0.195312 -0.234375 0.21875 -0.296875 C 0.238281 -0.367188 0.257812 -0.4375 0.28125 -0.5 C 0.3125 -0.5625 0.335938 -0.617188 0.359375 -0.671875 C 0.390625 -0.753906 0.414062 -0.820312 0.4375 -0.875 C 0.457031 -0.925781 0.472656 -0.960938 0.484375 -0.984375 C 0.503906 -1.015625 0.519531 -1.035156 0.53125 -1.046875 C 0.539062 -1.054688 0.546875 -1.0625 0.546875 -1.0625 C 0.554688 -1.0625 0.566406 -1.0625 0.578125 -1.0625 C 0.585938 -1.0625 0.59375 -1.050781 0.59375 -1.03125 C 0.601562 -1.007812 0.601562 -0.984375 0.59375 -0.953125 C 0.59375 -0.941406 0.59375 -0.929688 0.59375 -0.921875 C 0.59375 -0.921875 0.585938 -0.921875 0.578125 -0.921875 C 0.566406 -0.921875 0.5625 -0.921875 0.5625 -0.921875 C 0.5625 -0.929688 0.5625 -0.941406 0.5625 -0.953125 C 0.5625 -0.960938 0.5625 -0.972656 0.5625 -0.984375 C 0.5625 -0.992188 0.5625 -1.003906 0.5625 -1.015625 C 0.550781 -1.003906 0.535156 -0.984375 0.515625 -0.953125 C 0.503906 -0.929688 0.488281 -0.894531 0.46875 -0.84375 C 0.445312 -0.800781 0.421875 -0.738281 0.390625 -0.65625 C 0.335938 -0.5 0.289062 -0.363281 0.25 -0.25 C 0.207031 -0.132812 0.171875 -0.0390625 0.140625 0.03125 C 0.117188 0.113281 0.0976562 0.179688 0.078125 0.234375 C 0.0664062 0.296875 0.0546875 0.34375 0.046875 0.375 C 0.046875 0.40625 0.0390625 0.425781 0.03125 0.4375 C 0.03125 0.445312 0.0351562 0.457031 0.046875 0.46875 C 0.046875 0.46875 0.0507812 0.460938 0.0625 0.453125 C 0.0703125 0.441406 0.0859375 0.421875 0.109375 0.390625 C 0.128906 0.367188 0.15625 0.335938 0.1875 0.296875 C 0.269531 0.160156 0.390625 -0.0390625 0.546875 -0.3125 C 0.566406 -0.34375 0.582031 -0.363281 0.59375 -0.375 C 0.613281 -0.394531 0.628906 -0.40625 0.640625 -0.40625 C 0.660156 -0.394531 0.671875 -0.367188 0.671875 -0.328125 C 0.679688 -0.285156 0.6875 -0.21875 0.6875 -0.125 C 0.6875 -0.09375 0.6875 -0.0507812 0.6875 0 C 0.6875 0.0390625 0.6875 0.0820312 0.6875 0.125 C 0.6875 0.164062 0.691406 0.203125 0.703125 0.234375 C 0.710938 0.265625 0.726562 0.285156 0.75 0.296875 C 0.757812 0.296875 0.769531 0.289062 0.78125 0.28125 C 0.800781 0.28125 0.816406 0.273438 0.828125 0.265625 C 0.867188 0.222656 0.910156 0.171875 0.953125 0.109375 C 0.992188 0.0546875 1.03125 0 1.0625 -0.0625 C 1.101562 -0.132812 1.132812 -0.207031 1.15625 -0.28125 C 1.1875 -0.351562 1.210938 -0.421875 1.234375 -0.484375 C 1.253906 -0.554688 1.269531 -0.617188 1.28125 -0.671875 C 1.289062 -0.722656 1.289062 -0.765625 1.28125 -0.796875 C 1.28125 -0.804688 1.273438 -0.816406 1.265625 -0.828125 C 1.265625 -0.828125 1.257812 -0.820312 1.25 -0.8125 C 1.238281 -0.8125 1.226562 -0.804688 1.21875 -0.796875 C 1.207031 -0.785156 1.195312 -0.78125 1.1875 -0.78125 C 1.1875 -0.789062 1.1875 -0.796875 1.1875 -0.796875 C 1.175781 -0.796875 1.171875 -0.800781 1.171875 -0.8125 C 1.171875 -0.820312 1.175781 -0.828125 1.1875 -0.828125 C 1.21875 -0.859375 1.25 -0.867188 1.28125 -0.859375 C 1.300781 -0.859375 1.316406 -0.835938 1.328125 -0.796875 Z M 1.328125 -0.796875 "/></g></g></g></g><g fill="#5301de" fill-opacity="1"><g transform="translate(1.472985, 1.335608)"><g><path d="M 0.40625 -0.25 C 0.414062 -0.238281 0.421875 -0.226562 0.421875 -0.21875 C 0.421875 -0.21875 0.414062 -0.21875 0.40625 -0.21875 C 0.382812 -0.1875 0.363281 -0.160156 0.34375 -0.140625 C 0.320312 -0.128906 0.296875 -0.117188 0.265625 -0.109375 C 0.234375 -0.0976562 0.207031 -0.09375 0.1875 -0.09375 C 0.175781 -0.0703125 0.160156 -0.0507812 0.140625 -0.03125 C 0.117188 -0.0195312 0.0976562 -0.015625 0.078125 -0.015625 C 0.0546875 -0.015625 0.0351562 -0.0195312 0.015625 -0.03125 C 0.00390625 -0.0507812 -0.00390625 -0.0703125 -0.015625 -0.09375 C -0.015625 -0.113281 -0.0078125 -0.132812 0 -0.15625 C 0 -0.1875 0.00390625 -0.207031 0.015625 -0.21875 C 0.0234375 -0.238281 0.0351562 -0.253906 0.046875 -0.265625 C 0.0546875 -0.273438 0.0664062 -0.28125 0.078125 -0.28125 C 0.078125 -0.289062 0.0820312 -0.300781 0.09375 -0.3125 C 0.113281 -0.320312 0.128906 -0.328125 0.140625 -0.328125 C 0.148438 -0.328125 0.160156 -0.320312 0.171875 -0.3125 C 0.179688 -0.300781 0.1875 -0.285156 0.1875 -0.265625 C 0.195312 -0.242188 0.203125 -0.210938 0.203125 -0.171875 C 0.191406 -0.160156 0.1875 -0.148438 0.1875 -0.140625 C 0.207031 -0.140625 0.226562 -0.140625 0.25 -0.140625 C 0.28125 -0.148438 0.304688 -0.164062 0.328125 -0.1875 C 0.347656 -0.207031 0.363281 -0.222656 0.375 -0.234375 C 0.375 -0.242188 0.378906 -0.25 0.390625 -0.25 C 0.398438 -0.25 0.40625 -0.25 0.40625 -0.25 Z M 0.078125 -0.0625 C 0.0859375 -0.0625 0.0976562 -0.0664062 0.109375 -0.078125 C 0.117188 -0.0859375 0.128906 -0.0976562 0.140625 -0.109375 C 0.109375 -0.128906 0.0859375 -0.148438 0.078125 -0.171875 C 0.0664062 -0.191406 0.0625 -0.207031 0.0625 -0.21875 C 0.0507812 -0.207031 0.0390625 -0.191406 0.03125 -0.171875 C 0.03125 -0.148438 0.03125 -0.128906 0.03125 -0.109375 C 0.03125 -0.0976562 0.0351562 -0.0859375 0.046875 -0.078125 C 0.0546875 -0.0664062 0.0664062 -0.0625 0.078125 -0.0625 Z M 0.15625 -0.171875 C 0.15625 -0.203125 0.148438 -0.222656 0.140625 -0.234375 C 0.140625 -0.253906 0.140625 -0.265625 0.140625 -0.265625 C 0.140625 -0.273438 0.132812 -0.28125 0.125 -0.28125 C 0.125 -0.28125 0.117188 -0.273438 0.109375 -0.265625 C 0.109375 -0.265625 0.109375 -0.257812 0.109375 -0.25 C 0.109375 -0.238281 0.109375 -0.222656 0.109375 -0.203125 C 0.117188 -0.191406 0.132812 -0.175781 0.15625 -0.15625 C 0.15625 -0.15625 0.15625 -0.160156 0.15625 -0.171875 Z M 0.15625 -0.171875 "/></g></g></g><g clip-path="url(#61c19d8a01)"><g fill="#5301de" fill-opacity="1"><g transform="translate(1.825357, 1.335608)"><g><path d="M 0.5 -0.25 C 0.5 -0.25 0.5 -0.242188 0.5 -0.234375 C 0.507812 -0.234375 0.507812 -0.226562 0.5 -0.21875 C 0.488281 -0.195312 0.472656 -0.164062 0.453125 -0.125 C 0.429688 -0.0820312 0.40625 -0.0390625 0.375 0 C 0.351562 0.03125 0.332031 0.0625 0.3125 0.09375 C 0.289062 0.125 0.269531 0.148438 0.25 0.171875 C 0.226562 0.191406 0.207031 0.203125 0.1875 0.203125 C 0.175781 0.203125 0.171875 0.203125 0.171875 0.203125 C 0.148438 0.191406 0.132812 0.175781 0.125 0.15625 C 0.125 0.132812 0.128906 0.101562 0.140625 0.0625 C 0.148438 -0.0078125 0.175781 -0.117188 0.21875 -0.265625 C 0.21875 -0.265625 0.21875 -0.257812 0.21875 -0.25 C 0.207031 -0.238281 0.191406 -0.226562 0.171875 -0.21875 C 0.148438 -0.207031 0.125 -0.203125 0.09375 -0.203125 C 0.0703125 -0.203125 0.0507812 -0.207031 0.03125 -0.21875 C 0.0078125 -0.238281 0 -0.265625 0 -0.296875 C -0.0078125 -0.335938 0 -0.378906 0.03125 -0.421875 C 0.0390625 -0.429688 0.0507812 -0.441406 0.0625 -0.453125 C 0.0820312 -0.472656 0.0976562 -0.488281 0.109375 -0.5 C 0.128906 -0.507812 0.144531 -0.507812 0.15625 -0.5 C 0.164062 -0.5 0.171875 -0.492188 0.171875 -0.484375 C 0.171875 -0.472656 0.171875 -0.457031 0.171875 -0.4375 C 0.171875 -0.425781 0.160156 -0.40625 0.140625 -0.375 C 0.128906 -0.34375 0.109375 -0.300781 0.078125 -0.25 C 0.0976562 -0.238281 0.117188 -0.238281 0.140625 -0.25 C 0.160156 -0.269531 0.179688 -0.285156 0.203125 -0.296875 C 0.210938 -0.304688 0.222656 -0.3125 0.234375 -0.3125 C 0.242188 -0.320312 0.253906 -0.320312 0.265625 -0.3125 C 0.273438 -0.300781 0.273438 -0.289062 0.265625 -0.28125 C 0.265625 -0.28125 0.265625 -0.273438 0.265625 -0.265625 C 0.242188 -0.191406 0.222656 -0.128906 0.203125 -0.078125 C 0.191406 -0.0234375 0.179688 0.015625 0.171875 0.046875 C 0.171875 0.078125 0.171875 0.0976562 0.171875 0.109375 C 0.171875 0.128906 0.171875 0.140625 0.171875 0.140625 C 0.179688 0.148438 0.1875 0.15625 0.1875 0.15625 C 0.195312 0.164062 0.210938 0.15625 0.234375 0.125 C 0.265625 0.09375 0.300781 0.046875 0.34375 -0.015625 C 0.382812 -0.078125 0.425781 -0.15625 0.46875 -0.25 C 0.476562 -0.257812 0.488281 -0.257812 0.5 -0.25 Z M 0.046875 -0.328125 C 0.0351562 -0.316406 0.03125 -0.304688 0.03125 -0.296875 C 0.0390625 -0.285156 0.046875 -0.273438 0.046875 -0.265625 C 0.0664062 -0.304688 0.0820312 -0.335938 0.09375 -0.359375 C 0.113281 -0.390625 0.125 -0.410156 0.125 -0.421875 C 0.125 -0.441406 0.125 -0.457031 0.125 -0.46875 C 0.125 -0.457031 0.113281 -0.445312 0.09375 -0.4375 C 0.0820312 -0.425781 0.0703125 -0.410156 0.0625 -0.390625 C 0.0507812 -0.367188 0.046875 -0.347656 0.046875 -0.328125 Z M 0.046875 -0.328125 "/></g></g></g></g><g clip-path="url(#df54480041)"><g fill="#5301de" fill-opacity="1"><g transform="translate(2.266383, 1.335608)"><g><path d="M 0.484375 -0.9375 C 0.484375 -0.9375 0.484375 -0.929688 0.484375 -0.921875 C 0.484375 -0.921875 0.484375 -0.910156 0.484375 -0.890625 C 0.484375 -0.878906 0.476562 -0.859375 0.46875 -0.828125 C 0.46875 -0.804688 0.460938 -0.773438 0.453125 -0.734375 C 0.453125 -0.722656 0.445312 -0.710938 0.4375 -0.703125 C 0.4375 -0.703125 0.4375 -0.695312 0.4375 -0.6875 C 0.414062 -0.632812 0.394531 -0.570312 0.375 -0.5 C 0.351562 -0.4375 0.320312 -0.367188 0.28125 -0.296875 C 0.269531 -0.242188 0.257812 -0.191406 0.25 -0.140625 C 0.238281 -0.0859375 0.226562 -0.03125 0.21875 0.03125 C 0.195312 0.113281 0.179688 0.179688 0.171875 0.234375 C 0.171875 0.296875 0.164062 0.34375 0.15625 0.375 C 0.15625 0.40625 0.15625 0.425781 0.15625 0.4375 C 0.164062 0.4375 0.171875 0.4375 0.171875 0.4375 C 0.179688 0.445312 0.1875 0.453125 0.1875 0.453125 C 0.1875 0.460938 0.1875 0.46875 0.1875 0.46875 C 0.1875 0.476562 0.179688 0.488281 0.171875 0.5 C 0.160156 0.507812 0.148438 0.515625 0.140625 0.515625 C 0.128906 0.515625 0.117188 0.507812 0.109375 0.5 C 0.109375 0.488281 0.109375 0.46875 0.109375 0.4375 C 0.109375 0.414062 0.113281 0.382812 0.125 0.34375 C 0.132812 0.257812 0.148438 0.15625 0.171875 0.03125 C 0.179688 -0.0390625 0.191406 -0.109375 0.203125 -0.171875 C 0.191406 -0.148438 0.179688 -0.128906 0.171875 -0.109375 C 0.160156 -0.0976562 0.148438 -0.0820312 0.140625 -0.0625 C 0.117188 -0.03125 0.0976562 -0.0078125 0.078125 0 C 0.0546875 0.0078125 0.0390625 0.015625 0.03125 0.015625 C 0.0195312 0.0234375 0.0078125 0.0234375 0 0.015625 C -0.0078125 0.00390625 -0.015625 -0.0078125 -0.015625 -0.03125 C -0.0234375 -0.0625 -0.0234375 -0.09375 -0.015625 -0.125 C -0.015625 -0.15625 -0.0078125 -0.179688 0 -0.203125 C 0.03125 -0.265625 0.0625 -0.304688 0.09375 -0.328125 C 0.125 -0.347656 0.15625 -0.351562 0.1875 -0.34375 C 0.1875 -0.34375 0.191406 -0.335938 0.203125 -0.328125 C 0.210938 -0.328125 0.21875 -0.316406 0.21875 -0.296875 C 0.226562 -0.296875 0.234375 -0.300781 0.234375 -0.3125 C 0.265625 -0.4375 0.289062 -0.546875 0.3125 -0.640625 C 0.34375 -0.734375 0.367188 -0.804688 0.390625 -0.859375 C 0.410156 -0.910156 0.429688 -0.941406 0.453125 -0.953125 C 0.460938 -0.953125 0.472656 -0.945312 0.484375 -0.9375 Z M 0.09375 -0.078125 C 0.113281 -0.109375 0.128906 -0.132812 0.140625 -0.15625 C 0.160156 -0.1875 0.179688 -0.210938 0.203125 -0.234375 C 0.179688 -0.242188 0.175781 -0.253906 0.1875 -0.265625 C 0.1875 -0.265625 0.1875 -0.269531 0.1875 -0.28125 C 0.1875 -0.289062 0.179688 -0.300781 0.171875 -0.3125 C 0.171875 -0.3125 0.164062 -0.3125 0.15625 -0.3125 C 0.144531 -0.3125 0.128906 -0.300781 0.109375 -0.28125 C 0.0859375 -0.257812 0.0664062 -0.226562 0.046875 -0.1875 C 0.0234375 -0.164062 0.015625 -0.140625 0.015625 -0.109375 C 0.015625 -0.0859375 0.015625 -0.0664062 0.015625 -0.046875 C 0.015625 -0.0351562 0.0195312 -0.0234375 0.03125 -0.015625 C 0.03125 -0.015625 0.0351562 -0.0195312 0.046875 -0.03125 C 0.0546875 -0.0390625 0.0703125 -0.0546875 0.09375 -0.078125 Z M 0.40625 -0.75 C 0.414062 -0.769531 0.421875 -0.789062 0.421875 -0.8125 C 0.429688 -0.832031 0.4375 -0.847656 0.4375 -0.859375 C 0.425781 -0.828125 0.410156 -0.78125 0.390625 -0.71875 C 0.367188 -0.664062 0.347656 -0.59375 0.328125 -0.5 C 0.335938 -0.539062 0.347656 -0.578125 0.359375 -0.609375 C 0.367188 -0.640625 0.378906 -0.671875 0.390625 -0.703125 C 0.398438 -0.710938 0.40625 -0.71875 0.40625 -0.71875 C 0.40625 -0.726562 0.40625 -0.738281 0.40625 -0.75 Z M 0.40625 -0.75 "/></g></g></g></g><g clip-path="url(#12f3985350)"><g fill="#5301de" fill-opacity="1"><g transform="translate(2.617633, 1.335608)"><g><path d="M 0.5 -0.25 C 0.5 -0.25 0.5 -0.242188 0.5 -0.234375 C 0.507812 -0.234375 0.507812 -0.234375 0.5 -0.234375 C 0.476562 -0.203125 0.453125 -0.171875 0.421875 -0.140625 C 0.398438 -0.109375 0.375 -0.078125 0.34375 -0.046875 C 0.320312 -0.0234375 0.300781 -0.00390625 0.28125 0.015625 C 0.269531 0.046875 0.257812 0.0625 0.25 0.0625 C 0.238281 0.0820312 0.226562 0.0976562 0.21875 0.109375 C 0.226562 0.160156 0.226562 0.203125 0.21875 0.234375 C 0.207031 0.273438 0.191406 0.3125 0.171875 0.34375 C 0.160156 0.375 0.144531 0.394531 0.125 0.40625 C 0.101562 0.425781 0.0820312 0.4375 0.0625 0.4375 C 0.0507812 0.4375 0.0390625 0.429688 0.03125 0.421875 C 0.0195312 0.410156 0.015625 0.394531 0.015625 0.375 C 0.0234375 0.351562 0.0351562 0.328125 0.046875 0.296875 C 0.0664062 0.265625 0.0859375 0.234375 0.109375 0.203125 C 0.128906 0.171875 0.148438 0.140625 0.171875 0.109375 C 0.160156 0.0859375 0.148438 0.0703125 0.140625 0.0625 C 0.140625 0.0507812 0.132812 0.0351562 0.125 0.015625 C 0.09375 -0.0234375 0.0664062 -0.0664062 0.046875 -0.109375 C 0.0234375 -0.148438 0.015625 -0.1875 0.015625 -0.21875 C 0.0234375 -0.28125 0.0546875 -0.328125 0.109375 -0.359375 C 0.128906 -0.367188 0.148438 -0.375 0.171875 -0.375 C 0.191406 -0.382812 0.210938 -0.382812 0.234375 -0.375 C 0.242188 -0.375 0.25 -0.367188 0.25 -0.359375 C 0.25 -0.347656 0.25 -0.34375 0.25 -0.34375 C 0.238281 -0.332031 0.226562 -0.328125 0.21875 -0.328125 C 0.1875 -0.347656 0.15625 -0.347656 0.125 -0.328125 C 0.0820312 -0.296875 0.0625 -0.257812 0.0625 -0.21875 C 0.0625 -0.1875 0.0703125 -0.148438 0.09375 -0.109375 C 0.113281 -0.078125 0.140625 -0.0390625 0.171875 0 C 0.179688 0.0195312 0.191406 0.0390625 0.203125 0.0625 C 0.203125 0.0507812 0.207031 0.046875 0.21875 0.046875 C 0.226562 0.0351562 0.238281 0.0195312 0.25 0 C 0.269531 -0.0195312 0.289062 -0.046875 0.3125 -0.078125 C 0.34375 -0.109375 0.367188 -0.140625 0.390625 -0.171875 C 0.421875 -0.203125 0.445312 -0.226562 0.46875 -0.25 C 0.46875 -0.257812 0.472656 -0.265625 0.484375 -0.265625 C 0.492188 -0.265625 0.5 -0.257812 0.5 -0.25 Z M 0.140625 0.328125 C 0.140625 0.316406 0.144531 0.300781 0.15625 0.28125 C 0.164062 0.269531 0.171875 0.253906 0.171875 0.234375 C 0.179688 0.210938 0.179688 0.191406 0.171875 0.171875 C 0.140625 0.210938 0.113281 0.25 0.09375 0.28125 C 0.0820312 0.3125 0.0703125 0.335938 0.0625 0.359375 C 0.0625 0.378906 0.0625 0.390625 0.0625 0.390625 C 0.0703125 0.390625 0.0820312 0.382812 0.09375 0.375 C 0.101562 0.363281 0.117188 0.347656 0.140625 0.328125 Z M 0.140625 0.328125 "/></g></g></g></g></g></g></svg>