<svg xmlns="http://www.w3.org/2000/svg" xmlns:xlink="http://www.w3.org/1999/xlink" width="465" zoomAndPan="magnify" viewBox="0 0 348.75 353.249998" height="471" preserveAspectRatio="xMidYMid meet" version="1.0"><defs><g/><clipPath id="a57578cfa6"><path d="M 6.652344 9.507812 L 347.742188 9.507812 L 347.742188 351.929688 L 6.652344 351.929688 Z M 6.652344 9.507812 " clip-rule="nonzero"/></clipPath><clipPath id="e39e600aa7"><path d="M 62.035156 9.507812 L 292.359375 9.507812 C 307.050781 9.507812 321.136719 15.339844 331.523438 25.726562 C 341.910156 36.113281 347.742188 50.199219 347.742188 64.886719 L 347.742188 296.476562 C 347.742188 311.167969 341.910156 325.253906 331.523438 335.640625 C 321.136719 346.023438 307.050781 351.859375 292.359375 351.859375 L 62.035156 351.859375 C 47.347656 351.859375 33.257812 346.023438 22.871094 335.640625 C 12.488281 325.253906 6.652344 311.167969 6.652344 296.476562 L 6.652344 64.886719 C 6.652344 50.199219 12.488281 36.113281 22.871094 25.726562 C 33.257812 15.339844 47.347656 9.507812 62.035156 9.507812 Z M 62.035156 9.507812 " clip-rule="nonzero"/></clipPath><clipPath id="8a89fec525"><path d="M 0.652344 0.507812 L 341.742188 0.507812 L 341.742188 342.929688 L 0.652344 342.929688 Z M 0.652344 0.507812 " clip-rule="nonzero"/></clipPath><clipPath id="230ebebbb7"><path d="M 56.035156 0.507812 L 286.359375 0.507812 C 301.050781 0.507812 315.136719 6.339844 325.523438 16.726562 C 335.910156 27.113281 341.742188 41.199219 341.742188 55.886719 L 341.742188 287.476562 C 341.742188 302.167969 335.910156 316.253906 325.523438 326.640625 C 315.136719 337.023438 301.050781 342.859375 286.359375 342.859375 L 56.035156 342.859375 C 41.347656 342.859375 27.257812 337.023438 16.871094 326.640625 C 6.488281 316.253906 0.652344 302.167969 0.652344 287.476562 L 0.652344 55.886719 C 0.652344 41.199219 6.488281 27.113281 16.871094 16.726562 C 27.257812 6.339844 41.347656 0.507812 56.035156 0.507812 Z M 56.035156 0.507812 " clip-rule="nonzero"/></clipPath><clipPath id="ed2ff9db01"><rect x="0" width="342" y="0" height="343"/></clipPath><clipPath id="0856ed3e7b"><path d="M 0.246094 0 L 346 0 L 346 339.359375 L 0.246094 339.359375 Z M 0.246094 0 " clip-rule="nonzero"/></clipPath><clipPath id="aa33113697"><path d="M 55.628906 0 L 290.042969 0 C 304.734375 0 318.820312 5.835938 329.207031 16.222656 C 339.59375 26.605469 345.425781 40.695312 345.425781 55.382812 L 345.425781 283.976562 C 345.425781 298.667969 339.59375 312.753906 329.207031 323.140625 C 318.820312 333.527344 304.734375 339.359375 290.042969 339.359375 L 55.628906 339.359375 C 40.9375 339.359375 26.851562 333.527344 16.464844 323.140625 C 6.078125 312.753906 0.246094 298.667969 0.246094 283.976562 L 0.246094 55.382812 C 0.246094 40.695312 6.078125 26.605469 16.464844 16.222656 C 26.851562 5.835938 40.9375 0 55.628906 0 Z M 55.628906 0 " clip-rule="nonzero"/></clipPath><clipPath id="2486bd3020"><path d="M 0.246094 0 L 345 0 L 345 339.359375 L 0.246094 339.359375 Z M 0.246094 0 " clip-rule="nonzero"/></clipPath><clipPath id="f7035710cb"><path d="M 55.628906 0 L 290.042969 0 C 304.734375 0 318.820312 5.835938 329.207031 16.222656 C 339.59375 26.605469 345.425781 40.695312 345.425781 55.382812 L 345.425781 283.976562 C 345.425781 298.667969 339.59375 312.753906 329.207031 323.140625 C 318.820312 333.527344 304.734375 339.359375 290.042969 339.359375 L 55.628906 339.359375 C 40.9375 339.359375 26.851562 333.527344 16.464844 323.140625 C 6.078125 312.753906 0.246094 298.667969 0.246094 283.976562 L 0.246094 55.382812 C 0.246094 40.695312 6.078125 26.605469 16.464844 16.222656 C 26.851562 5.835938 40.9375 0 55.628906 0 Z M 55.628906 0 " clip-rule="nonzero"/></clipPath><clipPath id="f53e4c968e"><rect x="0" width="346" y="0" height="340"/></clipPath><clipPath id="c22d52de45"><path d="M 0.847656 0.777344 L 3 0.777344 L 3 2.695312 L 0.847656 2.695312 Z M 0.847656 0.777344 " clip-rule="nonzero"/></clipPath><clipPath id="fa8d723941"><path d="M 2 1 L 4 1 L 4 2.695312 L 2 2.695312 Z M 2 1 " clip-rule="nonzero"/></clipPath><clipPath id="13f3838dde"><path d="M 3 0.777344 L 4 0.777344 L 4 2.695312 L 3 2.695312 Z M 3 0.777344 " clip-rule="nonzero"/></clipPath><clipPath id="37cf456c84"><path d="M 3 1 L 4 1 L 4 2.695312 L 3 2.695312 Z M 3 1 " clip-rule="nonzero"/></clipPath><clipPath id="241150b65e"><rect x="0" width="5" y="0" height="3"/></clipPath></defs><g clip-path="url(#a57578cfa6)"><g clip-path="url(#e39e600aa7)"><g transform="matrix(1, 0, 0, 1, 6, 9)"><g clip-path="url(#ed2ff9db01)"><g clip-path="url(#8a89fec525)"><g clip-path="url(#230ebebbb7)"><path fill="#545454" d="M 0.652344 0.507812 L 341.742188 0.507812 L 341.742188 342.929688 L 0.652344 342.929688 Z M 0.652344 0.507812 " fill-opacity="1" fill-rule="nonzero"/></g></g></g></g></g></g><g clip-path="url(#0856ed3e7b)"><g clip-path="url(#aa33113697)"><g transform="matrix(1, 0, 0, 1, 0, 0.000000000000004047)"><g clip-path="url(#f53e4c968e)"><g clip-path="url(#2486bd3020)"><g clip-path="url(#f7035710cb)"><path fill="#fff6ea" d="M 0.246094 0 L 344.90625 0 L 344.90625 339.359375 L 0.246094 339.359375 Z M 0.246094 0 " fill-opacity="1" fill-rule="nonzero"/></g></g></g></g></g></g><g transform="matrix(1, 0, 0, 1, 111, 141)"><g clip-path="url(#241150b65e)"><g clip-path="url(#c22d52de45)"><g fill="#5301de" fill-opacity="1"><g transform="translate(0.952543, 1.941412)"><g><path d="M 1.328125 -0.796875 C 1.328125 -0.765625 1.320312 -0.726562 1.3125 -0.6875 C 1.3125 -0.644531 1.304688 -0.59375 1.296875 -0.53125 C 1.285156 -0.476562 1.265625 -0.421875 1.234375 -0.359375 C 1.210938 -0.296875 1.1875 -0.234375 1.15625 -0.171875 C 1.132812 -0.109375 1.109375 -0.0507812 1.078125 0 C 1.046875 0.0625 1.007812 0.117188 0.96875 0.171875 C 0.9375 0.222656 0.898438 0.265625 0.859375 0.296875 C 0.804688 0.335938 0.757812 0.347656 0.71875 0.328125 C 0.695312 0.316406 0.675781 0.289062 0.65625 0.25 C 0.644531 0.207031 0.640625 0.148438 0.640625 0.078125 C 0.640625 0.015625 0.640625 -0.0546875 0.640625 -0.140625 C 0.640625 -0.160156 0.640625 -0.1875 0.640625 -0.21875 C 0.640625 -0.25 0.640625 -0.273438 0.640625 -0.296875 C 0.640625 -0.328125 0.632812 -0.347656 0.625 -0.359375 C 0.625 -0.359375 0.617188 -0.351562 0.609375 -0.34375 C 0.609375 -0.332031 0.597656 -0.316406 0.578125 -0.296875 C 0.421875 -0.00390625 0.296875 0.207031 0.203125 0.34375 C 0.171875 0.382812 0.144531 0.414062 0.125 0.4375 C 0.101562 0.46875 0.0820312 0.488281 0.0625 0.5 C 0.0507812 0.507812 0.0390625 0.515625 0.03125 0.515625 C 0.03125 0.515625 0.0234375 0.515625 0.015625 0.515625 C 0.015625 0.503906 0.0078125 0.492188 0 0.484375 C 0 0.484375 0 0.472656 0 0.453125 C 0 0.441406 0 0.421875 0 0.390625 C 0.0078125 0.359375 0.0195312 0.316406 0.03125 0.265625 C 0.0390625 0.210938 0.0546875 0.148438 0.078125 0.078125 C 0.0976562 0.015625 0.117188 -0.046875 0.140625 -0.109375 C 0.171875 -0.171875 0.195312 -0.234375 0.21875 -0.296875 C 0.238281 -0.367188 0.257812 -0.4375 0.28125 -0.5 C 0.3125 -0.5625 0.335938 -0.617188 0.359375 -0.671875 C 0.390625 -0.753906 0.414062 -0.820312 0.4375 -0.875 C 0.457031 -0.925781 0.472656 -0.960938 0.484375 -0.984375 C 0.503906 -1.015625 0.519531 -1.035156 0.53125 -1.046875 C 0.539062 -1.054688 0.546875 -1.0625 0.546875 -1.0625 C 0.554688 -1.0625 0.566406 -1.0625 0.578125 -1.0625 C 0.585938 -1.0625 0.59375 -1.050781 0.59375 -1.03125 C 0.601562 -1.007812 0.601562 -0.984375 0.59375 -0.953125 C 0.59375 -0.941406 0.59375 -0.929688 0.59375 -0.921875 C 0.59375 -0.921875 0.585938 -0.921875 0.578125 -0.921875 C 0.566406 -0.921875 0.5625 -0.921875 0.5625 -0.921875 C 0.5625 -0.929688 0.5625 -0.941406 0.5625 -0.953125 C 0.5625 -0.960938 0.5625 -0.972656 0.5625 -0.984375 C 0.5625 -0.992188 0.5625 -1.003906 0.5625 -1.015625 C 0.550781 -1.003906 0.535156 -0.984375 0.515625 -0.953125 C 0.503906 -0.929688 0.488281 -0.894531 0.46875 -0.84375 C 0.445312 -0.800781 0.421875 -0.738281 0.390625 -0.65625 C 0.335938 -0.5 0.289062 -0.363281 0.25 -0.25 C 0.207031 -0.132812 0.171875 -0.0390625 0.140625 0.03125 C 0.117188 0.113281 0.0976562 0.179688 0.078125 0.234375 C 0.0664062 0.296875 0.0546875 0.34375 0.046875 0.375 C 0.046875 0.40625 0.0390625 0.425781 0.03125 0.4375 C 0.03125 0.445312 0.0351562 0.457031 0.046875 0.46875 C 0.046875 0.46875 0.0507812 0.460938 0.0625 0.453125 C 0.0703125 0.441406 0.0859375 0.421875 0.109375 0.390625 C 0.128906 0.367188 0.15625 0.335938 0.1875 0.296875 C 0.269531 0.160156 0.390625 -0.0390625 0.546875 -0.3125 C 0.566406 -0.34375 0.582031 -0.363281 0.59375 -0.375 C 0.613281 -0.394531 0.628906 -0.40625 0.640625 -0.40625 C 0.660156 -0.394531 0.671875 -0.367188 0.671875 -0.328125 C 0.679688 -0.285156 0.6875 -0.21875 0.6875 -0.125 C 0.6875 -0.09375 0.6875 -0.0507812 0.6875 0 C 0.6875 0.0390625 0.6875 0.0820312 0.6875 0.125 C 0.6875 0.164062 0.691406 0.203125 0.703125 0.234375 C 0.710938 0.265625 0.726562 0.285156 0.75 0.296875 C 0.757812 0.296875 0.769531 0.289062 0.78125 0.28125 C 0.800781 0.28125 0.816406 0.273438 0.828125 0.265625 C 0.867188 0.222656 0.910156 0.171875 0.953125 0.109375 C 0.992188 0.0546875 1.03125 0 1.0625 -0.0625 C 1.101562 -0.132812 1.132812 -0.207031 1.15625 -0.28125 C 1.1875 -0.351562 1.210938 -0.421875 1.234375 -0.484375 C 1.253906 -0.554688 1.269531 -0.617188 1.28125 -0.671875 C 1.289062 -0.722656 1.289062 -0.765625 1.28125 -0.796875 C 1.28125 -0.804688 1.273438 -0.816406 1.265625 -0.828125 C 1.265625 -0.828125 1.257812 -0.820312 1.25 -0.8125 C 1.238281 -0.8125 1.226562 -0.804688 1.21875 -0.796875 C 1.207031 -0.785156 1.195312 -0.78125 1.1875 -0.78125 C 1.1875 -0.789062 1.1875 -0.796875 1.1875 -0.796875 C 1.175781 -0.796875 1.171875 -0.800781 1.171875 -0.8125 C 1.171875 -0.820312 1.175781 -0.828125 1.1875 -0.828125 C 1.21875 -0.859375 1.25 -0.867188 1.28125 -0.859375 C 1.300781 -0.859375 1.316406 -0.835938 1.328125 -0.796875 Z M 1.328125 -0.796875 "/></g></g></g></g><g fill="#5301de" fill-opacity="1"><g transform="translate(2.254079, 1.941412)"><g><path d="M 0.40625 -0.25 C 0.414062 -0.238281 0.421875 -0.226562 0.421875 -0.21875 C 0.421875 -0.21875 0.414062 -0.21875 0.40625 -0.21875 C 0.382812 -0.1875 0.363281 -0.160156 0.34375 -0.140625 C 0.320312 -0.128906 0.296875 -0.117188 0.265625 -0.109375 C 0.234375 -0.0976562 0.207031 -0.09375 0.1875 -0.09375 C 0.175781 -0.0703125 0.160156 -0.0507812 0.140625 -0.03125 C 0.117188 -0.0195312 0.0976562 -0.015625 0.078125 -0.015625 C 0.0546875 -0.015625 0.0351562 -0.0195312 0.015625 -0.03125 C 0.00390625 -0.0507812 -0.00390625 -0.0703125 -0.015625 -0.09375 C -0.015625 -0.113281 -0.0078125 -0.132812 0 -0.15625 C 0 -0.1875 0.00390625 -0.207031 0.015625 -0.21875 C 0.0234375 -0.238281 0.0351562 -0.253906 0.046875 -0.265625 C 0.0546875 -0.273438 0.0664062 -0.28125 0.078125 -0.28125 C 0.078125 -0.289062 0.0820312 -0.300781 0.09375 -0.3125 C 0.113281 -0.320312 0.128906 -0.328125 0.140625 -0.328125 C 0.148438 -0.328125 0.160156 -0.320312 0.171875 -0.3125 C 0.179688 -0.300781 0.1875 -0.285156 0.1875 -0.265625 C 0.195312 -0.242188 0.203125 -0.210938 0.203125 -0.171875 C 0.191406 -0.160156 0.1875 -0.148438 0.1875 -0.140625 C 0.207031 -0.140625 0.226562 -0.140625 0.25 -0.140625 C 0.28125 -0.148438 0.304688 -0.164062 0.328125 -0.1875 C 0.347656 -0.207031 0.363281 -0.222656 0.375 -0.234375 C 0.375 -0.242188 0.378906 -0.25 0.390625 -0.25 C 0.398438 -0.25 0.40625 -0.25 0.40625 -0.25 Z M 0.078125 -0.0625 C 0.0859375 -0.0625 0.0976562 -0.0664062 0.109375 -0.078125 C 0.117188 -0.0859375 0.128906 -0.0976562 0.140625 -0.109375 C 0.109375 -0.128906 0.0859375 -0.148438 0.078125 -0.171875 C 0.0664062 -0.191406 0.0625 -0.207031 0.0625 -0.21875 C 0.0507812 -0.207031 0.0390625 -0.191406 0.03125 -0.171875 C 0.03125 -0.148438 0.03125 -0.128906 0.03125 -0.109375 C 0.03125 -0.0976562 0.0351562 -0.0859375 0.046875 -0.078125 C 0.0546875 -0.0664062 0.0664062 -0.0625 0.078125 -0.0625 Z M 0.15625 -0.171875 C 0.15625 -0.203125 0.148438 -0.222656 0.140625 -0.234375 C 0.140625 -0.253906 0.140625 -0.265625 0.140625 -0.265625 C 0.140625 -0.273438 0.132812 -0.28125 0.125 -0.28125 C 0.125 -0.28125 0.117188 -0.273438 0.109375 -0.265625 C 0.109375 -0.265625 0.109375 -0.257812 0.109375 -0.25 C 0.109375 -0.238281 0.109375 -0.222656 0.109375 -0.203125 C 0.117188 -0.191406 0.132812 -0.175781 0.15625 -0.15625 C 0.15625 -0.15625 0.15625 -0.160156 0.15625 -0.171875 Z M 0.15625 -0.171875 "/></g></g></g><g clip-path="url(#fa8d723941)"><g fill="#5301de" fill-opacity="1"><g transform="translate(2.606694, 1.941412)"><g><path d="M 0.5 -0.25 C 0.5 -0.25 0.5 -0.242188 0.5 -0.234375 C 0.507812 -0.234375 0.507812 -0.226562 0.5 -0.21875 C 0.488281 -0.195312 0.472656 -0.164062 0.453125 -0.125 C 0.429688 -0.0820312 0.40625 -0.0390625 0.375 0 C 0.351562 0.03125 0.332031 0.0625 0.3125 0.09375 C 0.289062 0.125 0.269531 0.148438 0.25 0.171875 C 0.226562 0.191406 0.207031 0.203125 0.1875 0.203125 C 0.175781 0.203125 0.171875 0.203125 0.171875 0.203125 C 0.148438 0.191406 0.132812 0.175781 0.125 0.15625 C 0.125 0.132812 0.128906 0.101562 0.140625 0.0625 C 0.148438 -0.0078125 0.175781 -0.117188 0.21875 -0.265625 C 0.21875 -0.265625 0.21875 -0.257812 0.21875 -0.25 C 0.207031 -0.238281 0.191406 -0.226562 0.171875 -0.21875 C 0.148438 -0.207031 0.125 -0.203125 0.09375 -0.203125 C 0.0703125 -0.203125 0.0507812 -0.207031 0.03125 -0.21875 C 0.0078125 -0.238281 0 -0.265625 0 -0.296875 C -0.0078125 -0.335938 0 -0.378906 0.03125 -0.421875 C 0.0390625 -0.429688 0.0507812 -0.441406 0.0625 -0.453125 C 0.0820312 -0.472656 0.0976562 -0.488281 0.109375 -0.5 C 0.128906 -0.507812 0.144531 -0.507812 0.15625 -0.5 C 0.164062 -0.5 0.171875 -0.492188 0.171875 -0.484375 C 0.171875 -0.472656 0.171875 -0.457031 0.171875 -0.4375 C 0.171875 -0.425781 0.160156 -0.40625 0.140625 -0.375 C 0.128906 -0.34375 0.109375 -0.300781 0.078125 -0.25 C 0.0976562 -0.238281 0.117188 -0.238281 0.140625 -0.25 C 0.160156 -0.269531 0.179688 -0.285156 0.203125 -0.296875 C 0.210938 -0.304688 0.222656 -0.3125 0.234375 -0.3125 C 0.242188 -0.320312 0.253906 -0.320312 0.265625 -0.3125 C 0.273438 -0.300781 0.273438 -0.289062 0.265625 -0.28125 C 0.265625 -0.28125 0.265625 -0.273438 0.265625 -0.265625 C 0.242188 -0.191406 0.222656 -0.128906 0.203125 -0.078125 C 0.191406 -0.0234375 0.179688 0.015625 0.171875 0.046875 C 0.171875 0.078125 0.171875 0.0976562 0.171875 0.109375 C 0.171875 0.128906 0.171875 0.140625 0.171875 0.140625 C 0.179688 0.148438 0.1875 0.15625 0.1875 0.15625 C 0.195312 0.164062 0.210938 0.15625 0.234375 0.125 C 0.265625 0.09375 0.300781 0.046875 0.34375 -0.015625 C 0.382812 -0.078125 0.425781 -0.15625 0.46875 -0.25 C 0.476562 -0.257812 0.488281 -0.257812 0.5 -0.25 Z M 0.046875 -0.328125 C 0.0351562 -0.316406 0.03125 -0.304688 0.03125 -0.296875 C 0.0390625 -0.285156 0.046875 -0.273438 0.046875 -0.265625 C 0.0664062 -0.304688 0.0820312 -0.335938 0.09375 -0.359375 C 0.113281 -0.390625 0.125 -0.410156 0.125 -0.421875 C 0.125 -0.441406 0.125 -0.457031 0.125 -0.46875 C 0.125 -0.457031 0.113281 -0.445312 0.09375 -0.4375 C 0.0820312 -0.425781 0.0703125 -0.410156 0.0625 -0.390625 C 0.0507812 -0.367188 0.046875 -0.347656 0.046875 -0.328125 Z M 0.046875 -0.328125 "/></g></g></g></g><g clip-path="url(#13f3838dde)"><g fill="#5301de" fill-opacity="1"><g transform="translate(3.048026, 1.941412)"><g><path d="M 0.484375 -0.9375 C 0.484375 -0.9375 0.484375 -0.929688 0.484375 -0.921875 C 0.484375 -0.921875 0.484375 -0.910156 0.484375 -0.890625 C 0.484375 -0.878906 0.476562 -0.859375 0.46875 -0.828125 C 0.46875 -0.804688 0.460938 -0.773438 0.453125 -0.734375 C 0.453125 -0.722656 0.445312 -0.710938 0.4375 -0.703125 C 0.4375 -0.703125 0.4375 -0.695312 0.4375 -0.6875 C 0.414062 -0.632812 0.394531 -0.570312 0.375 -0.5 C 0.351562 -0.4375 0.320312 -0.367188 0.28125 -0.296875 C 0.269531 -0.242188 0.257812 -0.191406 0.25 -0.140625 C 0.238281 -0.0859375 0.226562 -0.03125 0.21875 0.03125 C 0.195312 0.113281 0.179688 0.179688 0.171875 0.234375 C 0.171875 0.296875 0.164062 0.34375 0.15625 0.375 C 0.15625 0.40625 0.15625 0.425781 0.15625 0.4375 C 0.164062 0.4375 0.171875 0.4375 0.171875 0.4375 C 0.179688 0.445312 0.1875 0.453125 0.1875 0.453125 C 0.1875 0.460938 0.1875 0.46875 0.1875 0.46875 C 0.1875 0.476562 0.179688 0.488281 0.171875 0.5 C 0.160156 0.507812 0.148438 0.515625 0.140625 0.515625 C 0.128906 0.515625 0.117188 0.507812 0.109375 0.5 C 0.109375 0.488281 0.109375 0.46875 0.109375 0.4375 C 0.109375 0.414062 0.113281 0.382812 0.125 0.34375 C 0.132812 0.257812 0.148438 0.15625 0.171875 0.03125 C 0.179688 -0.0390625 0.191406 -0.109375 0.203125 -0.171875 C 0.191406 -0.148438 0.179688 -0.128906 0.171875 -0.109375 C 0.160156 -0.0976562 0.148438 -0.0820312 0.140625 -0.0625 C 0.117188 -0.03125 0.0976562 -0.0078125 0.078125 0 C 0.0546875 0.0078125 0.0390625 0.015625 0.03125 0.015625 C 0.0195312 0.0234375 0.0078125 0.0234375 0 0.015625 C -0.0078125 0.00390625 -0.015625 -0.0078125 -0.015625 -0.03125 C -0.0234375 -0.0625 -0.0234375 -0.09375 -0.015625 -0.125 C -0.015625 -0.15625 -0.0078125 -0.179688 0 -0.203125 C 0.03125 -0.265625 0.0625 -0.304688 0.09375 -0.328125 C 0.125 -0.347656 0.15625 -0.351562 0.1875 -0.34375 C 0.1875 -0.34375 0.191406 -0.335938 0.203125 -0.328125 C 0.210938 -0.328125 0.21875 -0.316406 0.21875 -0.296875 C 0.226562 -0.296875 0.234375 -0.300781 0.234375 -0.3125 C 0.265625 -0.4375 0.289062 -0.546875 0.3125 -0.640625 C 0.34375 -0.734375 0.367188 -0.804688 0.390625 -0.859375 C 0.410156 -0.910156 0.429688 -0.941406 0.453125 -0.953125 C 0.460938 -0.953125 0.472656 -0.945312 0.484375 -0.9375 Z M 0.09375 -0.078125 C 0.113281 -0.109375 0.128906 -0.132812 0.140625 -0.15625 C 0.160156 -0.1875 0.179688 -0.210938 0.203125 -0.234375 C 0.179688 -0.242188 0.175781 -0.253906 0.1875 -0.265625 C 0.1875 -0.265625 0.1875 -0.269531 0.1875 -0.28125 C 0.1875 -0.289062 0.179688 -0.300781 0.171875 -0.3125 C 0.171875 -0.3125 0.164062 -0.3125 0.15625 -0.3125 C 0.144531 -0.3125 0.128906 -0.300781 0.109375 -0.28125 C 0.0859375 -0.257812 0.0664062 -0.226562 0.046875 -0.1875 C 0.0234375 -0.164062 0.015625 -0.140625 0.015625 -0.109375 C 0.015625 -0.0859375 0.015625 -0.0664062 0.015625 -0.046875 C 0.015625 -0.0351562 0.0195312 -0.0234375 0.03125 -0.015625 C 0.03125 -0.015625 0.0351562 -0.0195312 0.046875 -0.03125 C 0.0546875 -0.0390625 0.0703125 -0.0546875 0.09375 -0.078125 Z M 0.40625 -0.75 C 0.414062 -0.769531 0.421875 -0.789062 0.421875 -0.8125 C 0.429688 -0.832031 0.4375 -0.847656 0.4375 -0.859375 C 0.425781 -0.828125 0.410156 -0.78125 0.390625 -0.71875 C 0.367188 -0.664062 0.347656 -0.59375 0.328125 -0.5 C 0.335938 -0.539062 0.347656 -0.578125 0.359375 -0.609375 C 0.367188 -0.640625 0.378906 -0.671875 0.390625 -0.703125 C 0.398438 -0.710938 0.40625 -0.71875 0.40625 -0.71875 C 0.40625 -0.726562 0.40625 -0.738281 0.40625 -0.75 Z M 0.40625 -0.75 "/></g></g></g></g><g clip-path="url(#37cf456c84)"><g fill="#5301de" fill-opacity="1"><g transform="translate(3.399519, 1.941412)"><g><path d="M 0.5 -0.25 C 0.5 -0.25 0.5 -0.242188 0.5 -0.234375 C 0.507812 -0.234375 0.507812 -0.234375 0.5 -0.234375 C 0.476562 -0.203125 0.453125 -0.171875 0.421875 -0.140625 C 0.398438 -0.109375 0.375 -0.078125 0.34375 -0.046875 C 0.320312 -0.0234375 0.300781 -0.00390625 0.28125 0.015625 C 0.269531 0.046875 0.257812 0.0625 0.25 0.0625 C 0.238281 0.0820312 0.226562 0.0976562 0.21875 0.109375 C 0.226562 0.160156 0.226562 0.203125 0.21875 0.234375 C 0.207031 0.273438 0.191406 0.3125 0.171875 0.34375 C 0.160156 0.375 0.144531 0.394531 0.125 0.40625 C 0.101562 0.425781 0.0820312 0.4375 0.0625 0.4375 C 0.0507812 0.4375 0.0390625 0.429688 0.03125 0.421875 C 0.0195312 0.410156 0.015625 0.394531 0.015625 0.375 C 0.0234375 0.351562 0.0351562 0.328125 0.046875 0.296875 C 0.0664062 0.265625 0.0859375 0.234375 0.109375 0.203125 C 0.128906 0.171875 0.148438 0.140625 0.171875 0.109375 C 0.160156 0.0859375 0.148438 0.0703125 0.140625 0.0625 C 0.140625 0.0507812 0.132812 0.0351562 0.125 0.015625 C 0.09375 -0.0234375 0.0664062 -0.0664062 0.046875 -0.109375 C 0.0234375 -0.148438 0.015625 -0.1875 0.015625 -0.21875 C 0.0234375 -0.28125 0.0546875 -0.328125 0.109375 -0.359375 C 0.128906 -0.367188 0.148438 -0.375 0.171875 -0.375 C 0.191406 -0.382812 0.210938 -0.382812 0.234375 -0.375 C 0.242188 -0.375 0.25 -0.367188 0.25 -0.359375 C 0.25 -0.347656 0.25 -0.34375 0.25 -0.34375 C 0.238281 -0.332031 0.226562 -0.328125 0.21875 -0.328125 C 0.1875 -0.347656 0.15625 -0.347656 0.125 -0.328125 C 0.0820312 -0.296875 0.0625 -0.257812 0.0625 -0.21875 C 0.0625 -0.1875 0.0703125 -0.148438 0.09375 -0.109375 C 0.113281 -0.078125 0.140625 -0.0390625 0.171875 0 C 0.179688 0.0195312 0.191406 0.0390625 0.203125 0.0625 C 0.203125 0.0507812 0.207031 0.046875 0.21875 0.046875 C 0.226562 0.0351562 0.238281 0.0195312 0.25 0 C 0.269531 -0.0195312 0.289062 -0.046875 0.3125 -0.078125 C 0.34375 -0.109375 0.367188 -0.140625 0.390625 -0.171875 C 0.421875 -0.203125 0.445312 -0.226562 0.46875 -0.25 C 0.46875 -0.257812 0.472656 -0.265625 0.484375 -0.265625 C 0.492188 -0.265625 0.5 -0.257812 0.5 -0.25 Z M 0.140625 0.328125 C 0.140625 0.316406 0.144531 0.300781 0.15625 0.28125 C 0.164062 0.269531 0.171875 0.253906 0.171875 0.234375 C 0.179688 0.210938 0.179688 0.191406 0.171875 0.171875 C 0.140625 0.210938 0.113281 0.25 0.09375 0.28125 C 0.0820312 0.3125 0.0703125 0.335938 0.0625 0.359375 C 0.0625 0.378906 0.0625 0.390625 0.0625 0.390625 C 0.0703125 0.390625 0.0820312 0.382812 0.09375 0.375 C 0.101562 0.363281 0.117188 0.347656 0.140625 0.328125 Z M 0.140625 0.328125 "/></g></g></g></g></g></g></svg>