<svg xmlns="http://www.w3.org/2000/svg" xmlns:xlink="http://www.w3.org/1999/xlink" width="1394" zoomAndPan="magnify" viewBox="0 0 1045.5 374.999991" height="500" preserveAspectRatio="xMidYMid meet" version="1.0"><defs><clipPath id="abc855bfa8"><path d="M 19.261719 10.199219 L 1045 10.199219 L 1045 374.269531 L 19.261719 374.269531 Z M 19.261719 10.199219 " clip-rule="nonzero"/></clipPath><clipPath id="2d527e2084"><path d="M 74.734375 10.199219 L 989.203125 10.199219 C 1003.914062 10.199219 1018.023438 16.042969 1028.425781 26.445312 C 1038.832031 36.847656 1044.675781 50.960938 1044.675781 65.671875 L 1044.675781 318.792969 C 1044.675781 333.507812 1038.832031 347.617188 1028.425781 358.019531 C 1018.023438 368.421875 1003.914062 374.269531 989.203125 374.269531 L 74.734375 374.269531 C 60.023438 374.269531 45.914062 368.421875 35.507812 358.019531 C 25.105469 347.617188 19.261719 333.507812 19.261719 318.792969 L 19.261719 65.671875 C 19.261719 50.960938 25.105469 36.847656 35.507812 26.445312 C 45.914062 16.042969 60.023438 10.199219 74.734375 10.199219 Z M 74.734375 10.199219 " clip-rule="nonzero"/></clipPath><clipPath id="f9cdf3e654"><path d="M 0.261719 0.199219 L 1025.699219 0.199219 L 1025.699219 364.269531 L 0.261719 364.269531 Z M 0.261719 0.199219 " clip-rule="nonzero"/></clipPath><clipPath id="a94accd699"><path d="M 55.734375 0.199219 L 970.203125 0.199219 C 984.914062 0.199219 999.023438 6.042969 1009.425781 16.445312 C 1019.832031 26.847656 1025.675781 40.960938 1025.675781 55.671875 L 1025.675781 308.792969 C 1025.675781 323.507812 1019.832031 337.617188 1009.425781 348.019531 C 999.023438 358.421875 984.914062 364.269531 970.203125 364.269531 L 55.734375 364.269531 C 41.023438 364.269531 26.914062 358.421875 16.507812 348.019531 C 6.105469 337.617188 0.261719 323.507812 0.261719 308.792969 L 0.261719 55.671875 C 0.261719 40.960938 6.105469 26.847656 16.507812 16.445312 C 26.914062 6.042969 41.023438 0.199219 55.734375 0.199219 Z M 55.734375 0.199219 " clip-rule="nonzero"/></clipPath><clipPath id="c0778f0c57"><rect x="0" width="1026" y="0" height="365"/></clipPath><clipPath id="f3c7996449"><path d="M 0 0.0898438 L 1038 0.0898438 L 1038 360.976562 L 0 360.976562 Z M 0 0.0898438 " clip-rule="nonzero"/></clipPath><clipPath id="3ea2301f4e"><path d="M 55.472656 0.0898438 L 982.238281 0.0898438 C 996.949219 0.0898438 1011.058594 5.933594 1021.460938 16.335938 C 1031.867188 26.742188 1037.710938 40.851562 1037.710938 55.5625 L 1037.710938 305.503906 C 1037.710938 320.214844 1031.867188 334.324219 1021.460938 344.726562 C 1011.058594 355.132812 996.949219 360.976562 982.238281 360.976562 L 55.472656 360.976562 C 40.761719 360.976562 26.652344 355.132812 16.246094 344.726562 C 5.84375 334.324219 0 320.214844 0 305.503906 L 0 55.5625 C 0 40.851562 5.84375 26.742188 16.246094 16.335938 C 26.652344 5.933594 40.761719 0.0898438 55.472656 0.0898438 Z M 55.472656 0.0898438 " clip-rule="nonzero"/></clipPath><clipPath id="9f296b5fb2"><path d="M 0 0.0898438 L 1037.742188 0.0898438 L 1037.742188 360.976562 L 0 360.976562 Z M 0 0.0898438 " clip-rule="nonzero"/></clipPath><clipPath id="c00c2bc45c"><path d="M 55.472656 0.0898438 L 982.238281 0.0898438 C 996.949219 0.0898438 1011.058594 5.933594 1021.460938 16.335938 C 1031.867188 26.742188 1037.710938 40.851562 1037.710938 55.5625 L 1037.710938 305.503906 C 1037.710938 320.214844 1031.867188 334.324219 1021.460938 344.726562 C 1011.058594 355.132812 996.949219 360.976562 982.238281 360.976562 L 55.472656 360.976562 C 40.761719 360.976562 26.652344 355.132812 16.246094 344.726562 C 5.84375 334.324219 0 320.214844 0 305.503906 L 0 55.5625 C 0 40.851562 5.84375 26.742188 16.246094 16.335938 C 26.652344 5.933594 40.761719 0.0898438 55.472656 0.0898438 Z M 55.472656 0.0898438 " clip-rule="nonzero"/></clipPath><clipPath id="a31576bf48"><rect x="0" width="1038" y="0" height="361"/></clipPath></defs><g clip-path="url(#abc855bfa8)"><g clip-path="url(#2d527e2084)"><g transform="matrix(1, 0, 0, 1, 19, 10)"><g clip-path="url(#c0778f0c57)"><g clip-path="url(#f9cdf3e654)"><g clip-path="url(#a94accd699)"><path fill="#545454" d="M 0.261719 0.199219 L 1025.628906 0.199219 L 1025.628906 364.269531 L 0.261719 364.269531 Z M 0.261719 0.199219 " fill-opacity="1" fill-rule="nonzero"/></g></g></g></g></g></g><g clip-path="url(#f3c7996449)"><g clip-path="url(#3ea2301f4e)"><g transform="matrix(1, 0, 0, 1, 0, -0.00000000000001299)"><g clip-path="url(#a31576bf48)"><g clip-path="url(#9f296b5fb2)"><g clip-path="url(#c00c2bc45c)"><path fill="#fff6ea" d="M 0 0.0898438 L 1037.546875 0.0898438 L 1037.546875 360.976562 L 0 360.976562 Z M 0 0.0898438 " fill-opacity="1" fill-rule="nonzero"/></g></g></g></g></g></g></svg>